<svg xmlns="http://www.w3.org/2000/svg" width="24" height="24" fill="none" viewBox="0 0 24 24" id="thumbs-up"><path fill="#000" fill-rule="evenodd" d="M8.79162 3.4955C9.00483 2.89851 9.57031 2.5 10.2042 2.5H10.9995C12.9325 2.5 14.4995 4.067 14.4995 6V9.5H19.494C21.0983 9.5 22.2874 10.9896 21.9319 12.554L20.3412 19.554C20.0825 20.6922 19.0706 21.5 17.9034 21.5H8.99951C7.6188 21.5 6.49951 20.3807 6.49951 19V10.3464C6.49951 10.0599 6.54878 9.77545 6.64516 9.50559L8.79162 3.4955ZM10.2042 3.5C9.99292 3.5 9.80443 3.63284 9.73336 3.83183L7.5869 9.84192C7.52907 10.0038 7.49951 10.1745 7.49951 10.3464V19C7.49951 19.8284 8.17108 20.5 8.99951 20.5H17.9034C18.6037 20.5 19.2109 20.0153 19.3661 19.3324L20.9568 12.3324C21.17 11.3938 20.4566 10.5 19.494 10.5H14.4995C13.9472 10.5 13.4995 10.0523 13.4995 9.5V6C13.4995 4.61929 12.3802 3.5 10.9995 3.5H10.2042Z" clip-rule="evenodd"></path><path fill="#000" fill-rule="evenodd" d="M1.5 9C1.5 8.17157 2.17157 7.5 3 7.5H5C6.38071 7.5 7.5 8.61929 7.5 10V19C7.5 20.3807 6.38071 21.5 5 21.5H3C2.17157 21.5 1.5 20.8284 1.5 20V9ZM3 8.5C2.72386 8.5 2.5 8.72386 2.5 9V20C2.5 20.2761 2.72386 20.5 3 20.5H5C5.82843 20.5 6.5 19.8284 6.5 19V10C6.5 9.17157 5.82843 8.5 5 8.5H3Z" clip-rule="evenodd"></path></svg>